<svg xmlns="http://www.w3.org/2000/svg" xmlns:xlink="http://www.w3.org/1999/xlink" width="1280" zoomAndPan="magnify" viewBox="0 0 960 719.999996" height="960" preserveAspectRatio="xMidYMid meet" version="1.0"><defs><g/></defs><path stroke-linecap="butt" transform="matrix(0.75, 0, 0, 0.75, 311.198426, -199.87497)" fill="none" stroke-linejoin="miter" d="M 223.9594 982.968758 C 223.9594 994.947925 220.745859 1003.109384 214.323983 1007.447925 C 204.428149 1010.223967 198.178149 1008.83855 195.573982 1003.281259 C 193.141691 997.552092 193.402107 992.864591 196.355232 989.218758 C 196.355232 985.052091 197.047941 982.968758 198.438566 982.968758 C 203.475024 979.322924 207.204191 977.151049 209.636483 976.458341 C 212.068775 975.765632 213.975025 975.416674 215.36565 975.416674 C 217.620858 975.416674 219.100025 975.765632 219.792734 976.458341 Z M 28.907308 513.437485 C 27.344808 513.437485 25.521891 512.567693 23.438557 510.833318 C 21.355224 509.093735 20.657307 507.531235 21.355224 506.145818 C 17.709391 504.755193 15.537515 501.89061 14.844807 497.552068 C 14.14689 493.208317 14.14689 489.302067 14.844807 485.833317 C 14.844807 482.187484 16.058349 478.802067 18.490641 475.677067 C 21.094807 472.552067 24.131266 470.208316 27.605224 468.645816 C 31.943766 466.562483 35.501058 465.520816 38.282308 465.520816 C 44.011475 465.520816 48.0896 467.864566 50.521892 472.552067 C 53.126059 477.062483 54.428142 481.838525 54.428142 486.874984 C 55.120851 494.687484 52.948976 501.281235 47.917725 506.666651 C 43.053142 511.874985 36.719808 514.130193 28.907308 513.437485 Z M 210.157316 604.322906 C 206.511483 599.286448 204.688566 595.729156 204.688566 593.645822 C 209.027108 585.833322 215.105233 581.927072 222.917734 581.927072 C 227.954192 583.312488 230.469817 585.74478 230.469817 589.218739 C 230.469817 592.864572 228.646901 596.421864 225.001067 599.895823 C 219.2719 602.843739 216.407317 604.322906 216.407317 604.322906 Z M 235.678151 523.072902 C 237.068776 533.140611 237.761484 539.390611 237.761484 541.822903 C 237.761484 544.249987 237.412526 546.161445 236.719818 547.55207 C 230.297942 550.499987 227.084401 552.671862 227.084401 554.062487 C 224.308359 559.093737 221.183359 561.614571 217.7094 561.614571 C 215.454192 561.614571 212.933358 560.135404 210.157316 557.187487 C 209.464608 555.104154 209.11565 551.890612 209.11565 547.55207 L 209.11565 540.260403 C 210.506275 535.916653 212.761483 531.666653 215.886483 527.499986 C 219.183359 523.156236 223.350025 520.989569 228.386484 520.989569 C 230.469817 520.989569 232.902109 521.682277 235.678151 523.072902 Z M 137.501063 347.031227 L 138.54273 349.374977 C 149.308355 349.374977 160.329189 350.760394 171.615648 353.541644 C 182.381273 358.572894 190.975024 362.135395 197.396899 364.218728 C 203.818774 366.302061 211.631275 369.166645 220.8344 372.812478 C 222.225025 372.812478 223.787525 372.46352 225.5219 371.770812 C 227.433359 371.072895 229.777109 370.291645 232.553151 369.427062 C 236.027109 368.036437 238.891693 366.302061 241.146901 364.218728 C 246.704193 362.828103 249.912527 362.135395 250.782318 362.135395 C 251.475027 362.135395 253.21461 362.828103 255.990652 364.218728 C 256.68336 363.520811 258.506277 363.177061 261.459402 363.177061 L 275.261486 363.177061 C 278.037528 362.479145 280.818778 362.135395 283.59482 362.135395 C 286.547945 362.135395 289.412529 362.135395 292.18857 362.135395 C 304.339613 362.135395 314.672946 363.520811 323.178155 366.302061 L 372.396908 366.302061 C 373.787533 366.99477 376.912533 367.343728 381.771908 367.343728 L 393.490659 366.302061 C 399.219825 363.520811 403.558367 362.135395 406.511492 362.135395 C 409.985451 360.74477 413.542743 360.052061 417.188576 360.052061 C 420.662535 360.052061 423.95941 360.395811 427.08441 361.093728 C 430.381285 361.786436 433.766702 362.479145 437.240661 363.177061 C 439.495869 366.645811 443.402119 369.166645 448.959411 370.729145 C 453.297953 372.114562 457.553162 374.979145 461.719828 379.322895 C 466.05837 383.489562 470.053162 388.437479 473.698996 394.166646 C 475.089621 397.635396 476.303162 401.197896 477.344829 404.84373 C 478.386496 408.31248 479.256288 412.21873 479.948996 416.562481 C 483.594829 434.270815 483.943788 447.812482 480.990663 457.187482 C 478.214621 466.3854 473.959412 472.723942 468.230245 476.1979 C 459.02712 485.395817 452.605245 491.124984 448.959411 493.385401 C 445.485453 495.468734 442.360453 496.854151 439.584411 497.552068 C 433.855244 498.244776 428.818785 500.416651 424.480243 504.062485 C 423.089618 504.062485 421.094826 504.23436 418.49066 504.583318 C 416.058368 504.927068 413.454201 505.104151 410.678159 505.104151 C 403.558367 505.104151 398.61045 503.624985 395.834409 500.677068 C 393.5792 496.510401 391.407325 493.296859 389.323992 491.041651 C 385.850033 488.958317 383.683366 485.744775 382.813575 481.406234 C 381.42295 480.708317 380.209408 479.843734 379.167741 478.802067 C 378.126074 477.7604 376.912533 476.54165 375.521908 475.156233 C 371.876074 471.5104 368.318782 469.687483 364.844824 469.687483 C 353.38649 466.213525 344.964615 464.302066 339.584406 463.958316 C 334.376072 463.609358 328.907322 463.437483 323.178155 463.437483 C 318.141697 463.437483 313.454196 463.260399 309.115654 462.916649 C 304.948988 462.567691 301.131279 460.916649 297.657321 457.968732 C 296.266696 458.661441 294.443779 459.010399 292.18857 459.010399 L 290.105237 459.010399 C 282.292737 459.010399 275.870861 460.135399 270.834403 462.395816 C 269.443778 463.088524 267.709403 463.781233 265.626069 464.479149 C 263.542736 465.171858 261.370861 465.864566 259.115652 466.562483 C 255.641694 468.645816 253.126068 470.29165 251.563568 471.5104 C 250.172943 472.552067 248.787527 473.765608 247.396902 475.156233 C 241.83961 476.54165 239.063568 477.583317 239.063568 478.281233 C 231.079192 483.312484 226.042734 486.354151 223.9594 487.395817 C 221.876067 488.437484 220.141692 488.958317 218.751067 488.958317 C 214.412525 491.041651 210.417733 493.557276 206.7719 496.510401 C 203.297941 499.286443 199.829191 502.499985 196.355232 506.145818 C 194.100024 508.229152 192.277107 509.791652 190.886482 510.833318 C 189.495857 511.874985 187.761482 513.088527 185.678149 514.479152 L 182.292732 524.114569 C 180.902107 527.062486 179.688565 531.057278 178.646898 536.093736 C 177.605232 540.953111 177.433357 543.729153 178.126065 544.42707 L 178.126065 547.55207 C 176.73544 552.58332 176.042731 556.057279 176.042731 557.968737 C 176.042731 559.703112 176.042731 561.265612 176.042731 562.656237 C 176.73544 565.432279 177.433357 567.864571 178.126065 569.947904 C 178.126065 570.812488 178.126065 571.593738 178.126065 572.291655 C 177.433357 577.15103 177.256273 581.229155 177.605232 584.531239 C 177.95419 587.656239 178.126065 591.041656 178.126065 594.687489 C 178.818773 598.156239 178.995857 601.541656 178.646898 604.843739 C 178.29794 607.96874 177.777107 611.265615 177.084398 614.739573 C 177.777107 618.385407 178.29794 621.854157 178.646898 625.15624 C 178.995857 628.281241 180.990648 630.885407 184.636482 632.968741 C 188.11044 633.661449 191.235441 634.010408 194.011482 634.010408 C 196.964607 634.010408 199.829191 634.010408 202.605233 634.010408 C 209.027108 634.010408 215.277108 633.661449 221.355234 632.968741 C 227.433359 632.270824 233.334401 631.578116 239.063568 630.885407 C 241.146901 631.578116 243.922943 631.927074 247.396902 631.927074 C 251.042735 631.927074 253.907319 631.578116 255.990652 630.885407 C 261.719819 629.494782 267.016694 628.104157 271.876069 626.718741 C 276.912528 625.15624 280.120861 623.677074 281.511486 622.291657 C 287.240653 620.901032 292.537529 619.68749 297.396904 618.645823 C 302.433362 617.604157 306.771904 616.302073 310.417738 614.739573 C 313.891696 611.958323 318.141697 610.572906 323.178155 610.572906 C 329.60003 614.21874 333.506281 615.260407 334.896906 613.697907 L 336.980239 613.697907 C 340.626073 616.645823 343.839614 618.645823 346.615656 619.68749 C 349.568781 620.729157 351.735448 621.59374 353.126073 622.291657 C 356.600032 622.984365 359.376074 625.15624 361.459407 628.802074 C 363.714615 632.270824 364.844824 635.833324 364.844824 639.479158 C 364.844824 648.677075 365.886491 656.489575 367.969824 662.916659 C 368.662532 666.385409 366.579199 669.598951 361.719824 672.552076 C 357.381282 680.364576 352.344823 686.35416 346.615656 690.520827 C 343.839614 691.906244 341.318781 693.38541 339.063573 694.94791 C 336.980239 696.333327 335.245864 697.723952 333.855239 699.114577 C 328.126072 704.843744 324.56878 708.749994 323.178155 710.833328 C 321.78753 712.916661 320.053155 714.739578 317.969822 716.302078 C 315.016696 721.854162 310.678155 725.760412 304.948988 728.020829 C 301.475029 733.572912 295.834404 736.354162 288.021903 736.354162 L 263.542736 739.739579 C 262.850027 739.041663 261.370861 738.697913 259.115652 738.697913 C 256.33961 738.697913 254.256277 739.041663 252.865652 739.739579 L 249.480235 739.739579 C 246.704193 739.739579 244.271901 738.609371 242.188568 736.354162 C 237.152109 735.656246 232.120859 734.791662 227.084401 733.749996 C 222.225025 732.708329 217.969817 730.01562 214.323983 725.677079 C 207.204191 723.593745 200.089608 722.552078 192.969816 722.552078 C 185.850024 722.552078 180.902107 723.244787 178.126065 724.635412 C 170.313565 728.973954 166.407314 733.312496 166.407314 737.656246 C 172.136481 746.161455 175.521898 753.624997 176.563565 760.05208 C 177.605232 766.302081 178.126065 771.249997 178.126065 774.895831 C 180.209398 778.364581 180.902107 781.927081 180.209398 785.572915 C 178.818773 791.302082 178.475023 795.90104 179.167732 799.374999 C 178.475023 807.187499 178.646898 813.786458 179.688565 819.166666 C 180.730232 824.546875 182.032315 829.671875 183.594815 834.53125 C 182.032315 838.869792 181.600023 842.432293 182.292732 845.208334 C 182.292732 850.244793 181.600023 854.151043 180.209398 856.927085 C 182.464607 861.265627 183.162523 865.171877 182.292732 868.645835 C 181.600023 872.291669 180.558357 876.197919 179.167732 880.364586 C 177.084398 893.213545 178.558357 907.447921 183.594815 923.072921 C 187.068774 928.802088 188.803149 934.880214 188.803149 941.302089 C 188.803149 947.031256 187.933357 952.932298 186.198982 959.010423 C 184.464607 964.911465 182.120857 971.078132 179.167732 977.500007 C 177.777107 981.145841 176.912523 984.359383 176.563565 987.135424 C 176.214606 989.911466 175.693773 993.125008 175.001065 996.770842 C 175.693773 1000.2448 175.261481 1004.671884 173.698981 1010.052092 C 172.308356 1015.432301 170.92294 1019.859384 169.532314 1023.333343 C 164.672939 1028.369801 162.240647 1032.276052 162.240647 1035.052093 C 157.204189 1040.088552 152.516689 1042.604177 148.178147 1042.604177 C 146.094813 1042.604177 144.183355 1042.432302 142.44898 1042.083344 C 140.714605 1041.734385 139.063563 1041.56251 137.501063 1041.56251 C 134.027104 1041.56251 131.600021 1042.255219 130.209396 1043.645844 C 127.256271 1045.036469 124.740646 1045.729177 122.657312 1045.729177 L 120.573979 1045.729177 C 117.620854 1044.338552 114.75627 1043.645844 111.980228 1043.645844 L 92.709394 1039.479177 C 91.318769 1037.223968 89.756269 1034.880218 88.021894 1032.447927 C 86.287519 1030.015635 84.636477 1027.671885 83.073977 1025.416676 C 81.683352 1022.640634 80.297935 1020.208343 78.90731 1018.125009 C 77.516685 1015.869801 76.475018 1013.005217 75.78231 1009.531259 C 72.136476 1003.109384 70.141685 998.6823 69.792726 996.250008 C 69.443768 993.645841 68.922935 991.302091 68.230226 989.218758 C 66.839601 986.442716 66.146893 983.578133 66.146893 980.625007 C 64.063559 977.151049 63.021893 973.593757 63.021893 969.947924 C 62.329184 965.781257 60.501059 962.223965 57.553142 959.27084 C 51.823976 947.291673 50.782309 936.354172 54.428142 926.458338 C 55.813559 922.119796 57.204184 918.213546 58.594809 914.739588 C 59.980226 911.093754 61.459393 907.880212 63.021893 905.104171 C 63.714601 899.375004 65.454185 893.296878 68.230226 886.875003 C 71.183351 874.026044 76.131268 863.00521 83.073977 853.802085 C 84.636477 849.463543 86.110435 846.250001 87.501061 844.166668 C 88.891686 840.692709 89.933352 837.046876 90.626061 833.229167 C 91.318769 829.234375 92.016686 826.109375 92.709394 823.854167 C 93.402103 818.994791 93.751061 815.171875 93.751061 812.395833 C 93.751061 809.442708 93.751061 806.927082 93.751061 804.843749 L 93.751061 789.739582 C 93.058352 786.265623 92.709394 783.317706 92.709394 780.885415 C 92.709394 778.281248 92.709394 775.588539 92.709394 772.812498 C 92.709394 769.859372 93.490644 765.604164 95.053144 760.05208 C 95.053144 756.406247 95.053144 752.843747 95.053144 749.374996 C 95.053144 745.729163 94.620853 741.822913 93.751061 737.656246 L 93.751061 716.302078 C 90.975019 713.348953 90.277102 710.833328 91.667727 708.749994 C 90.277102 705.104161 88.193769 703.281244 85.417727 703.281244 C 82.464602 703.281244 79.256269 702.239577 75.78231 700.156244 C 73.698977 699.458327 71.704185 698.937494 69.792726 698.593744 C 68.058351 698.244786 66.146893 698.072911 64.063559 698.072911 C 62.672934 698.072911 61.198976 698.244786 59.636476 698.593744 C 58.245851 698.937494 56.855226 699.114577 55.469809 699.114577 C 53.386476 698.416661 51.646892 696.249994 50.261475 692.60416 L 45.834392 688.437493 C 44.443767 679.234368 43.053142 672.552076 41.667725 668.385409 C 40.2771 664.041659 39.146892 660.744784 38.282308 658.489575 L 36.198975 655.364575 C 34.80835 649.635408 35.938558 646.072908 39.584392 644.687491 C 39.584392 638.958324 40.969808 635.744783 43.751058 635.052074 C 45.136475 634.354158 46.355225 633.833324 47.396892 633.489574 C 48.438559 633.140616 49.740642 632.270824 51.303142 630.885407 C 56.855226 628.104157 62.501059 626.718741 68.230226 626.718741 C 70.31356 626.718741 71.787518 625.588532 72.65731 623.333324 C 79.600019 620.552074 83.766685 617.776032 85.15731 614.99999 C 86.719811 612.046865 87.152102 608.833323 86.459394 605.364573 C 85.068769 598.244781 85.068769 592.515614 86.459394 588.177072 C 82.81356 578.973947 82.464602 572.552071 85.417727 568.906238 C 85.417727 559.703112 85.417727 553.36457 85.417727 549.89582 C 85.417727 546.249987 86.110435 541.562486 87.501061 535.83332 C 88.193769 532.359361 88.714602 530.104153 89.063561 529.062486 C 89.412519 528.020819 89.584394 527.151027 89.584394 526.458319 C 88.193769 524.197902 88.193769 521.333319 89.584394 517.864569 L 87.501061 499.635401 C 87.501061 489.041651 86.459394 482.968734 84.37606 481.406234 C 81.422935 477.239567 79.600019 474.114567 78.90731 472.031233 C 72.485435 461.958316 67.277101 454.322899 63.282309 449.114565 C 59.459393 443.729148 58.245851 438.177065 59.636476 432.447898 C 57.553142 423.937481 55.813559 416.645814 54.428142 410.572897 C 53.037517 404.494772 52.688559 399.71873 53.386476 396.24998 C 54.079184 392.604146 55.813559 388.697896 58.594809 384.531229 C 61.547934 382.270812 63.714601 379.406229 65.105226 375.937479 C 70.834393 371.593728 74.391685 367.687478 75.78231 364.218728 C 76.475018 362.828103 77.34481 361.437478 78.386477 360.052061 C 79.428144 358.489561 80.641685 357.010394 82.03231 355.624978 C 85.678144 354.927061 88.193769 354.583311 89.584394 354.583311 C 90.975019 354.583311 92.016686 354.583311 92.709394 354.583311 C 96.355228 354.583311 98.870853 354.234353 100.261478 353.541644 L 117.448979 349.374977 C 121.615646 347.812477 125.521896 347.031227 129.167729 347.031227 Z M 381.771908 752.499997 C 380.381283 753.885413 378.995866 754.92708 377.605241 755.624997 C 376.214616 756.317705 374.829199 757.010413 373.438574 757.70833 C 371.876074 758.401039 370.402116 759.010414 369.011491 759.531247 C 367.620866 759.874997 366.235449 760.744789 364.844824 762.135414 C 358.422949 758.48958 354.516698 754.234372 353.126073 749.374996 C 348.089615 741.562496 345.922948 736.874996 346.615656 735.312496 L 355.209407 721.510412 C 357.29274 719.427078 358.683365 717.864578 359.376074 716.822912 C 360.068782 715.781245 360.850032 714.822911 361.719824 713.958328 C 370.225032 708.401036 377.693783 705.624994 384.115658 705.624994 C 390.365658 705.624994 394.620867 708.052078 396.876075 712.916661 C 397.568784 722.291662 396.094825 729.755204 392.448992 735.312496 C 390.365658 738.260413 388.4542 740.953121 386.719825 743.385413 C 384.98545 745.812496 383.334408 748.854163 381.771908 752.499997 Z M 508.855247 379.062479 L 505.730247 383.489562 C 499.308372 382.791646 494.443788 378.541645 491.146913 370.729145 C 488.021913 362.739561 486.459413 355.968728 486.459413 350.416644 C 494.271913 345.380185 500.693789 342.86456 505.730247 342.86456 C 509.896914 342.86456 513.803164 344.249977 517.448998 347.031227 C 518.839623 348.593727 520.22504 350.416644 521.615665 352.499977 C 523.00629 354.583311 524.047956 356.317686 524.740665 357.708311 C 524.740665 358.401019 524.56879 360.052061 524.219831 362.656228 C 523.870873 365.083311 523.00629 366.645811 521.615665 367.343728 C 518.839623 375.156229 514.584414 379.062479 508.855247 379.062479 Z M 508.855247 379.062479 " stroke="#f6ff00" stroke-width="48.000149" stroke-opacity="1" stroke-miterlimit="4"/><g fill="#000000" fill-opacity="1"><g transform="translate(311.198426, 598.874991)"><g><path d="M 168 -61.59375 C 168 -52.53125 165.597656 -46.398438 160.796875 -43.203125 C 153.328125 -41.066406 148.660156 -42.128906 146.796875 -46.390625 C 144.929688 -50.660156 145.066406 -54.128906 147.203125 -56.796875 C 147.203125 -59.992188 147.734375 -61.59375 148.796875 -61.59375 C 152.535156 -64.257812 155.335938 -65.859375 157.203125 -66.390625 C 159.066406 -66.929688 160.53125 -67.203125 161.59375 -67.203125 C 163.195312 -67.203125 164.265625 -66.9375 164.796875 -66.40625 Z M 21.59375 -413.59375 C 20.53125 -413.59375 19.195312 -414.257812 17.59375 -415.59375 C 16 -416.925781 15.46875 -418.128906 16 -419.203125 C 13.332031 -420.265625 11.734375 -422.394531 11.203125 -425.59375 C 10.671875 -428.800781 10.671875 -431.738281 11.203125 -434.40625 C 11.203125 -437.070312 12.132812 -439.601562 14 -442 C 15.863281 -444.394531 18.128906 -446.128906 20.796875 -447.203125 C 23.992188 -448.796875 26.660156 -449.59375 28.796875 -449.59375 C 33.066406 -449.59375 36.132812 -447.859375 38 -444.390625 C 39.863281 -440.929688 40.796875 -437.332031 40.796875 -433.59375 C 41.328125 -427.726562 39.726562 -422.796875 36 -418.796875 C 32.269531 -414.796875 27.46875 -413.0625 21.59375 -413.59375 Z M 157.59375 -345.59375 C 154.925781 -349.332031 153.59375 -352 153.59375 -353.59375 C 156.800781 -359.46875 161.335938 -362.40625 167.203125 -362.40625 C 170.929688 -361.332031 172.796875 -359.460938 172.796875 -356.796875 C 172.796875 -354.128906 171.460938 -351.460938 168.796875 -348.796875 C 164.535156 -346.660156 162.40625 -345.59375 162.40625 -345.59375 Z M 176.796875 -406.40625 C 177.867188 -398.9375 178.40625 -394.265625 178.40625 -392.390625 C 178.40625 -390.523438 178.132812 -389.0625 177.59375 -388 C 172.800781 -385.863281 170.40625 -384.265625 170.40625 -383.203125 C 168.269531 -379.460938 165.867188 -377.59375 163.203125 -377.59375 C 161.597656 -377.59375 159.726562 -378.660156 157.59375 -380.796875 C 157.0625 -382.398438 156.796875 -384.800781 156.796875 -388 L 156.796875 -393.59375 C 157.867188 -396.800781 159.601562 -400.003906 162 -403.203125 C 164.394531 -406.398438 167.460938 -408 171.203125 -408 C 172.796875 -408 174.660156 -407.46875 176.796875 -406.40625 Z M 103.203125 -538.390625 L 104 -536.78125 C 112 -536.78125 120.265625 -535.710938 128.796875 -533.578125 C 136.796875 -529.847656 143.195312 -527.179688 148 -525.578125 C 152.800781 -523.984375 158.664062 -521.851562 165.59375 -519.1875 C 166.664062 -519.1875 167.867188 -519.453125 169.203125 -519.984375 C 170.535156 -520.515625 172.269531 -521.046875 174.40625 -521.578125 C 177.070312 -522.648438 179.203125 -523.984375 180.796875 -525.578125 C 185.066406 -526.648438 187.46875 -527.1875 188 -527.1875 C 188.53125 -527.1875 189.863281 -526.648438 192 -525.578125 C 192.53125 -526.117188 193.863281 -526.390625 196 -526.390625 L 206.40625 -526.390625 C 208.53125 -526.921875 210.660156 -527.1875 212.796875 -527.1875 C 214.929688 -527.1875 217.066406 -527.1875 219.203125 -527.1875 C 228.265625 -527.1875 236 -526.117188 242.40625 -523.984375 L 279.203125 -523.984375 C 280.265625 -523.453125 282.664062 -523.1875 286.40625 -523.1875 L 295.203125 -523.984375 C 299.460938 -526.117188 302.660156 -527.1875 304.796875 -527.1875 C 307.460938 -528.25 310.128906 -528.78125 312.796875 -528.78125 C 315.460938 -528.78125 317.992188 -528.515625 320.390625 -527.984375 C 322.796875 -527.453125 325.332031 -526.921875 328 -526.390625 C 329.601562 -523.722656 332.535156 -521.851562 336.796875 -520.78125 C 339.992188 -519.71875 343.191406 -517.585938 346.390625 -514.390625 C 349.597656 -511.191406 352.535156 -507.460938 355.203125 -503.203125 C 356.265625 -500.535156 357.195312 -497.867188 358 -495.203125 C 358.800781 -492.535156 359.46875 -489.601562 360 -486.40625 C 362.664062 -473.070312 362.929688 -462.9375 360.796875 -456 C 358.660156 -449.0625 355.460938 -444.257812 351.203125 -441.59375 C 344.265625 -434.664062 339.460938 -430.398438 336.796875 -428.796875 C 334.128906 -427.203125 331.726562 -426.132812 329.59375 -425.59375 C 325.332031 -425.0625 321.601562 -423.460938 318.40625 -420.796875 C 317.332031 -420.796875 315.863281 -420.660156 314 -420.390625 C 312.132812 -420.128906 310.132812 -420 308 -420 C 302.664062 -420 298.929688 -421.066406 296.796875 -423.203125 C 295.203125 -426.398438 293.601562 -428.800781 292 -430.40625 C 289.332031 -432 287.734375 -434.394531 287.203125 -437.59375 C 286.128906 -438.132812 285.191406 -438.800781 284.390625 -439.59375 C 283.597656 -440.394531 282.664062 -441.332031 281.59375 -442.40625 C 278.925781 -445.070312 276.257812 -446.40625 273.59375 -446.40625 C 265.0625 -449.070312 258.796875 -450.535156 254.796875 -450.796875 C 250.796875 -451.066406 246.664062 -451.203125 242.40625 -451.203125 C 238.664062 -451.203125 235.195312 -451.332031 232 -451.59375 C 228.800781 -451.863281 225.867188 -453.066406 223.203125 -455.203125 C 222.128906 -454.671875 220.796875 -454.40625 219.203125 -454.40625 L 217.59375 -454.40625 C 211.726562 -454.40625 206.929688 -453.601562 203.203125 -452 C 202.128906 -451.46875 200.789062 -450.929688 199.1875 -450.390625 C 197.59375 -449.859375 196 -449.328125 194.40625 -448.796875 C 191.738281 -447.203125 189.867188 -446.003906 188.796875 -445.203125 C 187.734375 -444.398438 186.664062 -443.46875 185.59375 -442.40625 C 181.332031 -441.332031 179.203125 -440.53125 179.203125 -440 C 173.335938 -436.269531 169.601562 -434.003906 168 -433.203125 C 166.394531 -432.398438 165.0625 -432 164 -432 C 160.800781 -430.394531 157.867188 -428.523438 155.203125 -426.390625 C 152.535156 -424.265625 149.867188 -421.867188 147.203125 -419.203125 C 145.597656 -417.597656 144.257812 -416.394531 143.1875 -415.59375 C 142.125 -414.800781 140.796875 -413.867188 139.203125 -412.796875 L 136.796875 -405.59375 C 135.734375 -403.46875 134.800781 -400.535156 134 -396.796875 C 133.195312 -393.066406 133.0625 -390.9375 133.59375 -390.40625 L 133.59375 -388 C 132.53125 -384.269531 132 -381.738281 132 -380.40625 C 132 -379.070312 132 -377.867188 132 -376.796875 C 132.53125 -374.660156 133.0625 -372.796875 133.59375 -371.203125 C 133.59375 -370.671875 133.59375 -370.132812 133.59375 -369.59375 C 133.0625 -365.863281 132.925781 -362.796875 133.1875 -360.390625 C 133.457031 -357.992188 133.59375 -355.460938 133.59375 -352.796875 C 134.132812 -350.128906 134.269531 -347.59375 134 -345.1875 C 133.726562 -342.789062 133.328125 -340.257812 132.796875 -337.59375 C 133.328125 -334.925781 133.726562 -332.394531 134 -330 C 134.269531 -327.601562 135.738281 -325.601562 138.40625 -324 C 141.070312 -323.46875 143.46875 -323.203125 145.59375 -323.203125 C 147.726562 -323.203125 149.863281 -323.203125 152 -323.203125 C 156.800781 -323.203125 161.46875 -323.46875 166 -324 C 170.53125 -324.53125 174.929688 -325.0625 179.203125 -325.59375 C 180.796875 -325.0625 182.925781 -324.796875 185.59375 -324.796875 C 188.257812 -324.796875 190.394531 -325.0625 192 -325.59375 C 196.269531 -326.664062 200.269531 -327.734375 204 -328.796875 C 207.726562 -329.867188 210.128906 -330.9375 211.203125 -332 C 215.460938 -333.0625 219.457031 -333.992188 223.1875 -334.796875 C 226.925781 -335.597656 230.128906 -336.53125 232.796875 -337.59375 C 235.460938 -339.726562 238.664062 -340.796875 242.40625 -340.796875 C 247.195312 -338.128906 250.128906 -337.332031 251.203125 -338.40625 L 252.796875 -338.40625 C 255.460938 -336.269531 257.863281 -334.800781 260 -334 C 262.132812 -333.195312 263.734375 -332.53125 264.796875 -332 C 267.460938 -331.46875 269.59375 -329.867188 271.1875 -327.203125 C 272.789062 -324.535156 273.59375 -321.867188 273.59375 -319.203125 C 273.59375 -312.265625 274.394531 -306.394531 276 -301.59375 C 276.53125 -298.925781 274.929688 -296.53125 271.203125 -294.40625 C 268.003906 -288.53125 264.269531 -283.992188 260 -280.796875 C 257.863281 -279.734375 255.992188 -278.664062 254.390625 -277.59375 C 252.796875 -276.53125 251.46875 -275.46875 250.40625 -274.40625 C 246.132812 -270.132812 243.460938 -267.195312 242.390625 -265.59375 C 241.328125 -264 240 -262.664062 238.40625 -261.59375 C 236.269531 -257.332031 233.066406 -254.398438 228.796875 -252.796875 C 226.128906 -248.535156 221.863281 -246.40625 216 -246.40625 L 197.59375 -244 C 197.0625 -244.53125 196 -244.796875 194.40625 -244.796875 C 192.269531 -244.796875 190.664062 -244.53125 189.59375 -244 L 187.203125 -244 C 185.066406 -244 183.195312 -244.800781 181.59375 -246.40625 C 177.863281 -246.9375 174.128906 -247.597656 170.390625 -248.390625 C 166.660156 -249.191406 163.460938 -251.195312 160.796875 -254.40625 C 155.460938 -256 150.128906 -256.796875 144.796875 -256.796875 C 139.460938 -256.796875 135.726562 -256.265625 133.59375 -255.203125 C 127.726562 -252.003906 124.796875 -248.800781 124.796875 -245.59375 C 129.066406 -239.195312 131.597656 -233.597656 132.390625 -228.796875 C 133.191406 -223.992188 133.59375 -220.257812 133.59375 -217.59375 C 135.195312 -214.925781 135.734375 -212.257812 135.203125 -209.59375 C 134.128906 -205.332031 133.863281 -201.867188 134.40625 -199.203125 C 133.863281 -193.335938 133.992188 -188.40625 134.796875 -184.40625 C 135.597656 -180.40625 136.53125 -176.535156 137.59375 -172.796875 C 136.53125 -169.597656 136.265625 -166.929688 136.796875 -164.796875 C 136.796875 -161.066406 136.265625 -158.132812 135.203125 -156 C 136.796875 -152.800781 137.328125 -149.867188 136.796875 -147.203125 C 136.265625 -144.535156 135.46875 -141.601562 134.40625 -138.40625 C 132.800781 -128.800781 133.863281 -118.132812 137.59375 -106.40625 C 140.257812 -102.132812 141.59375 -97.597656 141.59375 -92.796875 C 141.59375 -88.535156 140.925781 -84.132812 139.59375 -79.59375 C 138.257812 -75.0625 136.53125 -70.394531 134.40625 -65.59375 C 133.332031 -62.925781 132.660156 -60.523438 132.390625 -58.390625 C 132.128906 -56.265625 131.734375 -53.867188 131.203125 -51.203125 C 131.734375 -48.535156 131.460938 -45.203125 130.390625 -41.203125 C 129.328125 -37.203125 128.265625 -33.867188 127.203125 -31.203125 C 123.460938 -27.460938 121.59375 -24.53125 121.59375 -22.40625 C 117.863281 -18.664062 114.398438 -16.796875 111.203125 -16.796875 C 109.597656 -16.796875 108.128906 -16.925781 106.796875 -17.1875 C 105.460938 -17.457031 104.265625 -17.59375 103.203125 -17.59375 C 100.535156 -17.59375 98.664062 -17.0625 97.59375 -16 C 95.46875 -14.9375 93.601562 -14.40625 92 -14.40625 L 90.40625 -14.40625 C 88.269531 -15.46875 86.132812 -16 84 -16 L 69.59375 -19.203125 C 68.53125 -20.796875 67.332031 -22.523438 66 -24.390625 C 64.664062 -26.265625 63.46875 -28 62.40625 -29.59375 C 61.332031 -31.726562 60.257812 -33.59375 59.1875 -35.1875 C 58.125 -36.789062 57.328125 -38.925781 56.796875 -41.59375 C 54.128906 -46.394531 52.660156 -49.726562 52.390625 -51.59375 C 52.128906 -53.46875 51.734375 -55.203125 51.203125 -56.796875 C 50.128906 -58.929688 49.59375 -61.066406 49.59375 -63.203125 C 48 -65.867188 47.203125 -68.535156 47.203125 -71.203125 C 46.671875 -74.398438 45.335938 -77.066406 43.203125 -79.203125 C 38.929688 -88.265625 38.128906 -96.53125 40.796875 -104 C 41.867188 -107.195312 42.9375 -110.128906 44 -112.796875 C 45.0625 -115.460938 46.128906 -117.863281 47.203125 -120 C 47.734375 -124.269531 49.066406 -128.800781 51.203125 -133.59375 C 53.335938 -143.195312 57.070312 -151.46875 62.40625 -158.40625 C 63.46875 -161.601562 64.53125 -164 65.59375 -165.59375 C 66.664062 -168.257812 67.46875 -171.0625 68 -174 C 68.53125 -176.9375 69.0625 -179.203125 69.59375 -180.796875 C 70.132812 -184.535156 70.40625 -187.46875 70.40625 -189.59375 C 70.40625 -191.726562 70.40625 -193.597656 70.40625 -195.203125 L 70.40625 -206.40625 C 69.863281 -209.070312 69.59375 -211.335938 69.59375 -213.203125 C 69.59375 -215.066406 69.59375 -217.066406 69.59375 -219.203125 C 69.59375 -221.335938 70.128906 -224.535156 71.203125 -228.796875 C 71.203125 -231.460938 71.203125 -234.128906 71.203125 -236.796875 C 71.203125 -239.460938 70.9375 -242.394531 70.40625 -245.59375 L 70.40625 -261.59375 C 68.269531 -263.726562 67.734375 -265.597656 68.796875 -267.203125 C 67.734375 -269.867188 66.132812 -271.203125 64 -271.203125 C 61.863281 -271.203125 59.460938 -272 56.796875 -273.59375 C 55.203125 -274.132812 53.738281 -274.535156 52.40625 -274.796875 C 51.070312 -275.066406 49.601562 -275.203125 48 -275.203125 C 46.9375 -275.203125 45.867188 -275.066406 44.796875 -274.796875 C 43.734375 -274.535156 42.664062 -274.40625 41.59375 -274.40625 C 40 -274.9375 38.664062 -276.535156 37.59375 -279.203125 L 34.40625 -282.40625 C 33.332031 -289.332031 32.257812 -294.394531 31.1875 -297.59375 C 30.125 -300.800781 29.328125 -303.203125 28.796875 -304.796875 L 27.203125 -307.203125 C 26.128906 -311.460938 26.925781 -314.128906 29.59375 -315.203125 C 29.59375 -319.460938 30.660156 -321.863281 32.796875 -322.40625 C 33.867188 -322.9375 34.800781 -323.332031 35.59375 -323.59375 C 36.394531 -323.863281 37.332031 -324.53125 38.40625 -325.59375 C 42.664062 -327.726562 46.929688 -328.796875 51.203125 -328.796875 C 52.796875 -328.796875 53.863281 -329.597656 54.40625 -331.203125 C 59.738281 -333.335938 62.9375 -335.46875 64 -337.59375 C 65.0625 -339.726562 65.328125 -342.128906 64.796875 -344.796875 C 63.734375 -350.128906 63.734375 -354.394531 64.796875 -357.59375 C 62.128906 -364.53125 61.863281 -369.332031 64 -372 C 64 -378.9375 64 -383.738281 64 -386.40625 C 64 -389.070312 64.53125 -392.535156 65.59375 -396.796875 C 66.132812 -399.460938 66.535156 -401.195312 66.796875 -402 C 67.066406 -402.800781 67.203125 -403.46875 67.203125 -404 C 66.128906 -405.601562 66.128906 -407.738281 67.203125 -410.40625 L 65.59375 -424 C 65.59375 -432 64.796875 -436.53125 63.203125 -437.59375 C 61.066406 -440.800781 59.734375 -443.203125 59.203125 -444.796875 C 54.398438 -452.265625 50.53125 -458 47.59375 -462 C 44.664062 -466 43.734375 -470.132812 44.796875 -474.40625 C 43.203125 -480.800781 41.867188 -486.265625 40.796875 -490.796875 C 39.734375 -495.328125 39.46875 -498.925781 40 -501.59375 C 40.53125 -504.257812 41.863281 -507.195312 44 -510.40625 C 46.132812 -511.988281 47.734375 -514.113281 48.796875 -516.78125 C 53.066406 -519.976562 55.734375 -522.910156 56.796875 -525.578125 C 57.328125 -526.648438 57.992188 -527.71875 58.796875 -528.78125 C 59.597656 -529.851562 60.53125 -530.921875 61.59375 -531.984375 C 64.257812 -532.515625 66.125 -532.78125 67.1875 -532.78125 C 68.257812 -532.78125 69.0625 -532.78125 69.59375 -532.78125 C 72.257812 -532.78125 74.128906 -533.046875 75.203125 -533.578125 L 88 -536.78125 C 91.195312 -537.851562 94.128906 -538.390625 96.796875 -538.390625 Z M 286.40625 -234.40625 C 285.332031 -233.332031 284.257812 -232.53125 283.1875 -232 C 282.125 -231.46875 281.0625 -230.9375 280 -230.40625 C 278.9375 -229.863281 277.867188 -229.457031 276.796875 -229.1875 C 275.734375 -228.925781 274.664062 -228.265625 273.59375 -227.203125 C 268.800781 -229.867188 265.867188 -233.066406 264.796875 -236.796875 C 261.066406 -242.660156 259.46875 -246.128906 260 -247.203125 L 266.40625 -257.59375 C 268 -259.195312 269.0625 -260.398438 269.59375 -261.203125 C 270.132812 -262.003906 270.671875 -262.671875 271.203125 -263.203125 C 277.597656 -267.460938 283.195312 -269.59375 288 -269.59375 C 292.800781 -269.59375 296 -267.726562 297.59375 -264 C 298.132812 -257.0625 297.070312 -251.460938 294.40625 -247.203125 C 292.800781 -245.066406 291.332031 -243.066406 290 -241.203125 C 288.664062 -239.335938 287.46875 -237.070312 286.40625 -234.40625 Z M 381.59375 -514.390625 L 379.203125 -511.203125 C 374.398438 -511.734375 370.796875 -514.925781 368.390625 -520.78125 C 365.992188 -526.644531 364.796875 -531.710938 364.796875 -535.984375 C 370.660156 -539.710938 375.460938 -541.578125 379.203125 -541.578125 C 382.398438 -541.578125 385.332031 -540.515625 388 -538.390625 C 389.0625 -537.316406 390.125 -535.976562 391.1875 -534.375 C 392.257812 -532.78125 393.0625 -531.453125 393.59375 -530.390625 C 393.59375 -529.847656 393.457031 -528.644531 393.1875 -526.78125 C 392.925781 -524.914062 392.265625 -523.71875 391.203125 -523.1875 C 389.066406 -517.320312 385.863281 -514.390625 381.59375 -514.390625 Z M 381.59375 -514.390625 "/></g></g></g></svg>